<?xml version="1.0" encoding="UTF-8"?>
<svg id="Layer_1" data-name="Layer 1" xmlns="http://www.w3.org/2000/svg" viewBox="0 0 1080 1080">
  <defs>
    <style>
      .cls-1 {
        fill: #ff9d0f;
        stroke-width: 0px;
      }
    </style>
  </defs>
  <polygon class="cls-1" points="331.98 248.8 330.2 248.8 330.6 248.17 331.98 248.8"/>
  <polygon class="cls-1" points="163.87 176.64 163.87 396.99 221.16 396.99 221.16 220.74 891.86 220.74 891.86 528.96 859.74 429.75 811.84 429.75 811.84 650.09 859.74 650.09 859.74 549.92 889.55 650.09 939.77 650.09 939.77 176.64 163.87 176.64"/>
  <path class="cls-1" d="m328.17,249.21v147.78h-38.43v-62.07h-11.5v62.07h-38.43v-147.78h38.43v52.85h11.5v-52.85h38.43Z"/>
  <path class="cls-1" d="m344.6,249.21l67.79-1.04v29.57l-29.36,1.04v28.02h24.01v28.11h-24.01v32.49h29.36v29.57h-67.79v-147.78Z"/>
  <path class="cls-1" d="m163.87,429.74h42.87c27.67,0,46.39,1.27,56.14,3.81,9.75,2.54,17.17,6.72,22.25,12.52,5.08,5.81,8.25,12.27,9.53,19.39,1.27,7.12,1.9,21.12,1.9,41.99v77.17c0,19.78-.93,33-2.79,39.67-1.86,6.67-5.1,11.89-9.73,15.65-4.63,3.77-10.34,6.4-17.15,7.89-6.8,1.5-17.06,2.25-30.76,2.25h-72.27v-220.35Zm57.3,37.7v144.95c8.25,0,13.34-1.65,15.24-4.97,1.91-3.31,2.86-12.32,2.86-27.01v-85.61c0-9.98-.32-16.38-.95-19.19-.64-2.81-2.09-4.88-4.35-6.19-2.27-1.31-6.53-1.97-12.79-1.97Z"/>
  <path class="cls-1" d="m317.93,429.74h95.54v44.1h-38.24v41.78h35.79v41.92h-35.79v48.45h42.05v44.1h-99.35v-220.35Z"/>
  <path class="cls-1" d="m555.15,496.43h-53.22v-16.33c0-7.62-.68-12.47-2.04-14.56-1.36-2.09-3.63-3.13-6.8-3.13-3.45,0-6.06,1.41-7.83,4.22-1.77,2.82-2.65,7.08-2.65,12.8,0,7.35.99,12.89,2.98,16.62,1.9,3.72,7.3,8.21,16.19,13.47,25.51,15.14,41.57,27.56,48.19,37.27,6.62,9.71,9.94,25.36,9.94,46.96,0,15.7-1.84,27.27-5.51,34.7-3.67,7.44-10.77,13.68-21.3,18.71-10.53,5.03-22.78,7.55-36.75,7.55-15.33,0-28.42-2.9-39.26-8.71-10.84-5.8-17.94-13.2-21.3-22.18-3.36-8.98-5.03-21.73-5.03-38.24v-14.43h53.22v26.81c0,8.26.75,13.57,2.25,15.92,1.5,2.36,4.15,3.54,7.96,3.54s6.64-1.5,8.51-4.49c1.86-2.99,2.79-7.44,2.79-13.34,0-12.97-1.77-21.46-5.31-25.45-3.63-3.99-12.57-10.66-26.81-20.01-14.25-9.43-23.68-16.28-28.31-20.55-4.63-4.26-8.46-10.16-11.5-17.69-3.04-7.53-4.56-17.15-4.56-28.85,0-16.88,2.15-29.21,6.47-37.02,4.31-7.8,11.27-13.9,20.89-18.3,9.62-4.4,21.23-6.6,34.84-6.6,14.88,0,27.56,2.4,38.04,7.21,10.48,4.81,17.42,10.87,20.82,18.17,3.4,7.3,5.1,19.71,5.1,37.22v8.71Z"/>
  <path class="cls-1" d="m635.18,429.74v220.35h-57.3v-220.35h57.3Z"/>
  <path class="cls-1" d="m789.65,510.86h-57.3v-20.01c0-12.61-.54-20.5-1.63-23.68-1.09-3.17-3.67-4.76-7.76-4.76-3.54,0-5.94,1.36-7.21,4.08-1.27,2.72-1.91,9.71-1.91,20.96v105.75c0,9.89.63,16.4,1.91,19.53,1.27,3.13,3.81,4.7,7.62,4.7,4.17,0,7.01-1.77,8.51-5.31,1.5-3.54,2.25-10.43,2.25-20.69v-26.13h-11.57v-33.48h67.1v118.27h-36.01l-5.3-15.79c-3.9,6.8-8.83,11.91-14.78,15.31-5.95,3.4-12.96,5.1-21.04,5.1-9.63,0-18.64-2.34-27.04-7.01-8.4-4.67-14.78-10.46-19.14-17.35-4.36-6.89-7.08-14.13-8.17-21.71-1.09-7.57-1.63-18.94-1.63-34.09v-65.46c0-21.05,1.13-36.34,3.4-45.86,2.27-9.53,8.78-18.26,19.53-26.2,10.75-7.94,24.66-11.91,41.71-11.91s30.71,3.45,41.78,10.34c11.07,6.9,18.28,15.08,21.64,24.56,3.36,9.48,5.04,23.25,5.04,41.31v9.53Z"/>
  <path class="cls-1" d="m789.65,682.85v44.1h0v176.25h-57.3v-176.25s-49.22,0-49.22,0v-44.1h106.51Z"/>
  <path class="cls-1" d="m270.38,683.67v44.1h-49.22v176.25h-57.3v-176.25h0v-44.1h106.51Z"/>
  <path class="cls-1" d="m423.76,682.85v220.35h-57.3v-92.55h-17.15v92.55h-57.3v-220.35s57.3,0,57.3,0v78.8h17.15v-78.8h57.3Z"/>
  <path class="cls-1" d="m446.17,682.85h95.54v44.1h-38.24v41.78h35.79v41.92h-35.79v48.45h42.05v44.1h-99.35v-220.35Z"/>
  <path class="cls-1" d="m662.38,903.19h-99.35v-44.1h42.05s0-48.45,0-48.45h-35.79v-41.92h35.79s0-41.78,0-41.78h-38.24v-44.1h95.54v220.35Z"/>
  <path class="cls-1" d="m811.84,683.25v221.18l47.13-.83h1.65v-44.37h33.63v44.37h48.79v-220.35h-131.19Zm82.41,141.5h-33.63v-93.96h33.63v93.96Z"/>
</svg>