<?xml version="1.0" encoding="UTF-8"?>
<svg id="Layer_1" data-name="Layer 1" xmlns="http://www.w3.org/2000/svg" viewBox="0 0 1080 1080">
  <defs>
    <style>
      .cls-1 {
        fill: #fff;
      }

      .cls-1, .cls-2 {
        stroke-width: 0px;
      }

      .cls-2 {
        fill: #36013f;
      }
    </style>
  </defs>
  <rect class="cls-2" x="3.58" width="1080" height="1080"/>
  <g>
    <path class="cls-1" d="m492.52,316.71v445.21H155.1l194.08-311.51c-48.13-21.78-104.34,4.07-119.33,54.89l-75.74,256.62h-27.26v-445.21h337.43l-194.08,311.51c48.13,21.78,104.34-4.07,119.33-54.88l75.74-256.62h27.25Z"/>
    <g>
      <polygon class="cls-1" points="625.57 361.99 624.48 361.99 624.73 361.61 625.57 361.99"/>
      <polygon class="cls-1" points="522.68 317.82 522.68 452.69 557.74 452.69 557.74 344.82 968.26 344.82 968.26 533.47 948.6 472.75 919.28 472.75 919.28 607.61 948.6 607.61 948.6 546.3 966.84 607.61 997.58 607.61 997.58 317.82 522.68 317.82"/>
      <path class="cls-1" d="m623.24,362.24v90.45h-23.52v-37.99h-7.04v37.99h-23.52v-90.45h23.52v32.35h7.04v-32.35h23.52Z"/>
      <path class="cls-1" d="m633.29,362.24l41.49-.64v18.1l-17.97.64v17.15h14.69v17.21h-14.69v19.89h17.97v18.1h-41.49v-90.45Z"/>
      <path class="cls-1" d="m522.67,472.74h26.24c16.94,0,28.39.78,34.36,2.33,5.97,1.56,10.51,4.11,13.62,7.66,3.11,3.55,5.05,7.51,5.83,11.87.78,4.36,1.17,12.93,1.17,25.7v47.23c0,12.11-.57,20.2-1.71,24.28-1.14,4.08-3.12,7.28-5.96,9.58-2.83,2.31-6.33,3.91-10.5,4.83-4.16.92-10.44,1.37-18.83,1.37h-44.23v-134.87Zm35.07,23.08v88.72c5.05,0,8.16-1.01,9.33-3.04,1.17-2.03,1.75-7.54,1.75-16.54v-52.4c0-6.11-.2-10.02-.58-11.75-.39-1.72-1.28-2.98-2.67-3.79-1.39-.8-4-1.21-7.83-1.21Z"/>
      <path class="cls-1" d="m616.97,472.74h58.48v26.99h-23.41v25.57h21.91v25.66h-21.91v29.66h25.74v26.99h-60.81v-134.87Z"/>
      <path class="cls-1" d="m762.17,513.56h-32.57v-10c0-4.66-.42-7.64-1.25-8.91-.83-1.28-2.22-1.92-4.16-1.92-2.11,0-3.71.86-4.79,2.58s-1.62,4.34-1.62,7.84c0,4.5.61,7.89,1.83,10.17,1.16,2.28,4.47,5.03,9.91,8.25,15.61,9.27,25.44,16.87,29.5,22.81,4.05,5.94,6.08,15.52,6.08,28.74,0,9.61-1.12,16.69-3.37,21.24-2.25,4.55-6.59,8.37-13.04,11.45-6.44,3.08-13.94,4.62-22.49,4.62-9.39,0-17.4-1.78-24.03-5.33-6.64-3.55-10.98-8.08-13.04-13.58-2.06-5.5-3.08-13.3-3.08-23.41v-8.83h32.57v16.41c0,5.05.46,8.3,1.37,9.75.92,1.45,2.54,2.17,4.87,2.17s4.07-.92,5.21-2.75c1.14-1.83,1.71-4.55,1.71-8.16,0-7.94-1.08-13.13-3.25-15.58-2.22-2.44-7.69-6.53-16.41-12.25-8.72-5.77-14.49-9.97-17.33-12.58-2.83-2.61-5.18-6.22-7.04-10.83-1.86-4.61-2.79-10.5-2.79-17.66,0-10.33,1.32-17.88,3.96-22.66,2.64-4.78,6.9-8.51,12.79-11.2,5.89-2.69,13-4.04,21.33-4.04,9.11,0,16.87,1.47,23.28,4.41,6.41,2.94,10.66,6.65,12.75,11.12,2.08,4.47,3.12,12.06,3.12,22.78v5.33Z"/>
      <path class="cls-1" d="m811.15,472.74v134.87h-35.07v-134.87h35.07Z"/>
      <path class="cls-1" d="m905.7,522.39h-35.07s0-12.25,0-12.25c0-7.72-.33-12.55-1-14.49-.67-1.94-2.25-2.92-4.75-2.92-2.17,0-3.64.83-4.41,2.5-.78,1.67-1.17,5.94-1.17,12.83v64.73c0,6.05.39,10.04,1.17,11.95.78,1.92,2.33,2.87,4.66,2.87,2.55,0,4.29-1.08,5.21-3.25.92-2.17,1.37-6.39,1.37-12.66v-15.99h-7.08v-20.49h41.07v72.39h-22.04l-3.24-9.66c-2.39,4.16-5.41,7.29-9.04,9.37-3.64,2.08-7.93,3.12-12.88,3.12-5.89,0-11.41-1.43-16.55-4.29-5.14-2.86-9.04-6.4-11.71-10.62-2.67-4.22-4.34-8.65-5-13.29-.67-4.64-1-11.59-1-20.87v-40.07c0-12.88.69-22.24,2.08-28.07,1.39-5.83,5.37-11.18,11.95-16.04,6.58-4.86,15.09-7.29,25.53-7.29s18.8,2.11,25.57,6.33c6.77,4.22,11.19,9.23,13.24,15.04,2.05,5.8,3.08,14.23,3.08,25.28v5.83Z"/>
      <path class="cls-1" d="m905.7,627.66v26.99h0v107.88h-35.07v-107.88s-30.12,0-30.12,0v-26.99h65.19Z"/>
      <path class="cls-1" d="m587.87,628.16v26.99h-30.12v107.88h-35.07v-107.88h0v-26.99h65.19Z"/>
      <path class="cls-1" d="m681.74,627.66v134.87h-35.07v-56.65h-10.5v56.65h-35.07v-134.87h35.07v48.23h10.5v-48.23h35.07Z"/>
      <path class="cls-1" d="m695.46,627.66h58.48v26.99h-23.41v25.57h21.91v25.66h-21.91v29.66h25.74v26.99h-60.81v-134.87Z"/>
      <path class="cls-1" d="m827.8,762.53h-60.81v-26.99h25.74s0-29.66,0-29.66h-21.91v-25.66h21.91s0-25.57,0-25.57h-23.41v-26.99h58.48v134.87Z"/>
      <path class="cls-1" d="m919.28,627.91v135.38l28.85-.51h1.01s0-27.16,0-27.16h20.58v27.16h29.86v-134.87h-80.3Zm50.44,86.61h-20.58v-57.51h20.58v57.51Z"/>
    </g>
  </g>
</svg>